<?xml version="1.0" encoding="utf-8"?>
<!-- Generator: Adobe Illustrator 23.0.0, SVG Export Plug-In . SVG Version: 6.00 Build 0)  -->
<svg version="1.1" id="Calque_1" xmlns="http://www.w3.org/2000/svg" xmlns:xlink="http://www.w3.org/1999/xlink" x="0px" y="0px"
	 viewBox="0 0 100 82" style="enable-background:new 0 0 100 82;" xml:space="preserve">
<style type="text/css">
	.st0{fill:#0A94FF;}
</style>
<path class="st0" d="M91.7,0H8.3C6.1,0,4,0.9,2.4,2.4C0.9,4,0,6.1,0,8.4v65.3c0,2.2,0.9,4.3,2.4,5.9C4,81.1,6.1,82,8.3,82
	c2.1,0,4.1-0.8,5.7-2.3L25.4,69h0c0.3-0.3,0.7-0.5,1.1-0.5h65.2c2.2,0,4.3-0.9,5.9-2.4c1.6-1.6,2.4-3.7,2.4-5.9V8.3
	c0-2.2-0.9-4.3-2.4-5.9C96,0.9,93.9,0,91.7,0L91.7,0z M67.7,25.8L45.6,49.4c-0.7,0.7-1.6,1.1-2.5,1.1c-1,0-1.9-0.5-2.5-1.2l-8.5-10
	c-0.6-0.9-0.7-2.1-0.3-3.1c0.4-1,1.3-1.8,2.3-2c1.1-0.3,2.2,0,3,0.7l6.2,7.1l19.6-20.8c0.8-0.8,2-1.1,3.1-0.8c1.1,0.3,2,1.1,2.4,2.2
	C68.8,23.7,68.5,24.9,67.7,25.8L67.7,25.8z"/>
</svg>
