<?xml version="1.0" encoding="utf-8"?>
<!-- Generator: Adobe Illustrator 23.0.0, SVG Export Plug-In . SVG Version: 6.00 Build 0)  -->
<svg version="1.1" id="Calque_1" xmlns="http://www.w3.org/2000/svg" xmlns:xlink="http://www.w3.org/1999/xlink" x="0px" y="0px"
	 viewBox="0 0 100 100" style="enable-background:new 0 0 100 100;" xml:space="preserve">
<style type="text/css">
	.st0{fill:#183650;}
</style>
<path class="st0" d="M47.6,1.1L0.8,56.3c-1.8,2-0.3,5.3,2.5,5.3h5.2v35.2c0,1.8,1.5,3.2,3.1,3.2h23.2c1.8,0,3.1-1.5,3.1-3.2l0-23.2
	c0-1.8,1.5-3.2,3.1-3.2H59c1.8,0,3.1,1.5,3.1,3.2v23.2c0,1.8,1.5,3.2,3.1,3.2h23.2c1.8,0,3.1-1.5,3.1-3.2V61.6h5.2
	c2.7,0,4.2-3.2,2.5-5.3L52.5,1.1C51.2-0.4,48.9-0.4,47.6,1.1L47.6,1.1z"/>
</svg>
