<?xml version="1.0" encoding="utf-8"?>
<!-- Generator: Adobe Illustrator 23.0.0, SVG Export Plug-In . SVG Version: 6.00 Build 0)  -->
<svg version="1.1" id="Calque_1" xmlns="http://www.w3.org/2000/svg" xmlns:xlink="http://www.w3.org/1999/xlink" x="0px" y="0px"
	 viewBox="0 0 100 60" style="enable-background:new 0 0 100 60;" xml:space="preserve">
<style type="text/css">
	.st0{fill:#333333;}
</style>
<path class="st0" d="M5.7,2.4v37.1c0,0.6-0.3,1.2-0.7,1.7c-0.4,0.4-1.1,0.7-1.7,0.7H0V0h3.3C4,0,4.6,0.2,5,0.7
	C5.5,1.1,5.7,1.7,5.7,2.4L5.7,2.4z M85.7,10.1l-19-9.2C65.5,0.3,64.3,0,63,0H49.8c-2.4,0-4.8,1-6.3,2.9L29.7,20
	c-0.5,0.7-0.7,1.5-0.6,2.4c0.2,0.8,0.7,1.5,1.5,1.9c0.9,0.5,2,0.6,3,0.5c1-0.2,1.9-0.7,2.7-1.4l12-11.9c0.4-0.4,1-0.7,1.7-0.7h5.2
	c0.9,0,1.7,0.5,2.1,1.3c2.7,5.1,7.8,8.5,13.6,9.1c0.6,0,1.2,0.2,1.7,0.7c0.4,0.4,0.7,1,0.7,1.7c0,0.6-0.3,1.2-0.7,1.7
	c-0.4,0.4-1.1,0.7-1.7,0.7c-7.1-0.4-13.5-4.3-17.1-10.4H51L39.7,26.7c-1.8,1.8-4.2,2.8-6.8,2.8c-1.5,0-3-0.3-4.3-1
	c-2.1-1-3.5-2.9-4-5.1c-0.5-2.2,0-4.5,1.5-6.3L38.1,2.4c-6-1.8-12.4-1-17.8,2.2c-0.4,0.4-1,0.6-1.5,0.6h-8.3v31.5h8.1
	c0.7,0,1.4,0.3,1.9,0.9L36.1,57c1.1,1.4,2.7,2.4,4.5,2.8c1.8,0.4,3.7,0.2,5.3-0.6l20.3-9.7c1-0.7,1.5-2,1.1-3.2l-4-11.6
	c-0.4-1.2,0.3-2.5,1.5-3c0.6-0.2,1.3-0.2,1.8,0.1c0.6,0.3,1,0.8,1.2,1.4l3,8.8h0.5c6.3,1.1,12.8-0.5,18-4.2V10.5h-3
	C86.2,10.4,85.9,10.2,85.7,10.1L85.7,10.1z M96.8,5.4c-1.3,0-2.4,1.1-2.4,2.4v37.1c0,0.6,0.3,1.2,0.7,1.7c0.4,0.4,1.1,0.7,1.7,0.7
	h3.2v-42L96.8,5.4z"/>
</svg>
