<?xml version="1.0" encoding="utf-8"?>
<!-- Generator: Adobe Illustrator 23.0.0, SVG Export Plug-In . SVG Version: 6.00 Build 0)  -->
<svg version="1.1" id="Calque_1" xmlns="http://www.w3.org/2000/svg" xmlns:xlink="http://www.w3.org/1999/xlink" x="0px" y="0px"
	 viewBox="0 0 100 100" style="enable-background:new 0 0 100 100;" xml:space="preserve">
<style type="text/css">
	.st0{fill:#183650;}
</style>
<path class="st0" d="M96.9,81.9L78.2,63.3c3.9-6.5,6-13.9,6-21.4c0-11.1-4.5-21.8-12.4-29.6C64,4.4,53.2,0,42.1,0
	c-3.1,0-6.1,0.3-9.1,1c-0.3,0.1-0.7,0.2-1,0.2c-9.1,2.3-17.2,7.5-23,14.8C3.2,23.5,0,32.5,0,41.9c0,9.3,3.1,18.4,8.9,25.8
	c5.8,7.4,13.9,12.6,23,14.8c0.3,0.1,0.7,0.2,1,0.2c3,0.7,6.1,1,9.1,1c7.3,0,14.6-1.9,20.9-5.5l18.8,18.7c2.7,2.7,6.6,3.7,10.3,2.7
	c3.7-1,6.6-3.8,7.5-7.5C100.6,88.5,99.6,84.6,96.9,81.9L96.9,81.9z M74,41.9c0,3.4-0.6,6.9-1.7,10.1c-0.4,1.3-1,2.6-1.6,3.9
	c-3.2,6.5-8.6,11.8-15.2,14.8c-4.2,1.9-8.7,2.9-13.4,2.9c-3.1,0-6.2-0.4-9.1-1.3l-1-0.3c-6.3-2.1-11.9-6.2-15.8-11.6s-6-11.9-6-18.5
	c0-6.7,2.1-13.1,6-18.5c3.9-5.4,9.4-9.4,15.7-11.6l1-0.3c3-0.9,6-1.3,9.1-1.3c8.5,0,16.6,3.4,22.6,9.3C70.6,25.4,74,33.4,74,41.9
	L74,41.9z"/>
<path class="st0" d="M42.1,20.1v0.3c0,1.1,0.4,2.2,1.1,3.1c0.7,0.9,1.7,1.5,2.8,1.7c3.1,0.7,5.9,2.3,8.2,4.6
	c2.3,2.2,3.8,5.1,4.6,8.2c0.2,1.1,0.8,2.1,1.7,2.8c0.9,0.7,2,1.1,3.1,1.1H64c1.5,0,2.9-0.7,3.9-1.9c0.9-1.2,1.3-2.7,1-4.2
	c-1.1-5-3.7-9.6-7.3-13.2c-3.7-3.6-8.3-6.2-13.3-7.3c-1.5-0.3-3,0-4.2,0.9C42.8,17.2,42.1,18.6,42.1,20.1L42.1,20.1z"/>
</svg>
