<?xml version="1.0" encoding="utf-8"?>
<!-- Generator: Adobe Illustrator 23.0.0, SVG Export Plug-In . SVG Version: 6.00 Build 0)  -->
<svg version="1.1" id="Calque_1" xmlns="http://www.w3.org/2000/svg" xmlns:xlink="http://www.w3.org/1999/xlink" x="0px" y="0px"
	 viewBox="0 0 100 100" style="enable-background:new 0 0 100 100;" xml:space="preserve">
<style type="text/css">
	.st0{fill:#183650;}
</style>
<path class="st0" d="M98.2,59.8c-4.2-1.4-7-5.3-7-9.8s2.8-8.4,7-9.8c1.3-0.4,2-1.8,1.7-3.1c-1.2-4.6-3-9.1-5.5-13.2
	c-0.7-1.2-2.2-1.6-3.5-1c-1.5,0.8-3.2,1.3-4.9,1.3c-5.7,0-10.3-4.6-10.3-10.3c0-1.7,0.4-3.4,1.3-4.9c0.7-1.2,0.2-2.8-1-3.5
	c-4.1-2.4-8.6-4.3-13.2-5.5c-1.3-0.3-2.6,0.4-3.1,1.7c-1.4,4.2-5.3,7-9.8,7s-8.4-2.8-9.8-7c-0.4-1.3-1.8-2-3.1-1.7
	c-4.6,1.2-9.1,3-13.2,5.5c-1.2,0.7-1.6,2.2-1,3.5c0.8,1.5,1.3,3.2,1.3,4.9c0,5.7-4.6,10.3-10.3,10.3c-1.7,0-3.4-0.4-4.9-1.3
	c-1.2-0.7-2.8-0.2-3.5,1c-2.4,4.1-4.3,8.6-5.5,13.2c-0.3,1.3,0.4,2.6,1.7,3.1c4.2,1.4,7,5.3,7,9.8c0,4.4-2.8,8.4-7,9.8
	c-1.3,0.4-2,1.8-1.7,3.1c1.2,4.6,3,9.1,5.5,13.2c0.7,1.2,2.2,1.6,3.5,1c1.5-0.8,3.2-1.3,4.9-1.3c5.7,0,10.3,4.6,10.3,10.3
	c0,1.7-0.4,3.4-1.3,4.9c-0.7,1.2-0.2,2.8,1,3.5c4.1,2.4,8.6,4.3,13.2,5.5c0.2,0.1,0.4,0.1,0.6,0.1c1.1,0,2.1-0.7,2.4-1.8
	c1.4-4.2,5.3-7,9.8-7s8.4,2.8,9.8,7c0.4,1.3,1.8,2,3.1,1.7c4.6-1.2,9.1-3,13.2-5.5c1.2-0.7,1.6-2.2,1-3.5c-0.8-1.5-1.3-3.2-1.3-4.9
	c0-5.7,4.6-10.3,10.3-10.3c1.7,0,3.4,0.4,4.9,1.3c1.2,0.7,2.8,0.2,3.5-1c2.4-4.1,4.3-8.6,5.5-13.2C100.2,61.5,99.5,60.2,98.2,59.8
	L98.2,59.8z M50,65.5c-8.5,0-15.5-6.9-15.5-15.5c0-8.5,6.9-15.5,15.5-15.5c8.5,0,15.5,6.9,15.5,15.5C65.5,58.5,58.5,65.5,50,65.5z"
	/>
</svg>
